<svg width="170" height="39" viewBox="0 0 170 39" fill="none" xmlns="http://www.w3.org/2000/svg">
    <g clip-path="url(#clip0_17_2)">
        <path d="M85.721 19.065C80.5201 12.31 70.89 11.091 62.902 11.006C50.745 10.877 39.0731 14.547 27.3261 17.161C21.8971 18.369 16.306 19.236 10.743 18.656C5.14305 18.073 0.528054 13.953 2.30005 7.94499C3.15205 5.05699 5.69406 2.32499 8.58506 1.46899C11.4571 0.617994 15.411 1.86499 16.603 4.77399C17.63 7.27599 15.847 11.487 12.736 9.93499C12.058 9.59799 11.4951 8.82699 11.4041 8.07699C11.2631 6.90499 13.047 6.87599 13.773 6.83399C15.076 6.75899 15.041 4.96199 13.773 4.83599C10.335 4.49599 7.64405 7.53199 10.172 10.591C12.958 13.964 17.545 12.228 18.648 8.33699C20.185 2.91299 14.2801 -0.162007 9.80205 0.0719933C4.58705 0.344993 0.739051 5.93299 0.763051 10.816C0.786051 15.84 5.72805 18.723 10.0261 19.55C16.7321 20.841 24.0781 19.012 30.5861 17.483C39.2271 15.453 47.7521 13.251 56.6151 12.404C63.9021 11.708 71.5621 11.943 78.2481 15.213C80.6141 16.37 82.703 18.075 84.3251 20.142C84.9451 20.935 86.336 19.863 85.721 19.065Z" fill="white"/>
        <path d="M83.987 17.957C80.648 13.396 74.627 12.692 69.368 12.388C63.929 12.074 58.222 13.348 53.907 16.774C49.567 20.222 47.537 27.327 49.639 32.45C51.622 37.283 58.334 38.926 62.955 37.868C73.949 35.351 65.434 16.377 56.353 22.914C53.462 24.994 52.211 29.963 55.591 32.269C58.568 34.3 64.954 33.503 63.457 28.495C62.951 26.806 61.347 24.857 59.336 25.801C57.874 26.486 56.596 28.258 58.202 29.446C59.34 30.287 60.476 28.358 59.316 27.54C60.65 28.48 62.092 28.395 61.688 30.391C61.418 31.73 59.866 31.928 58.827 31.94C56.337 31.966 54.47 29.762 54.809 27.377C55.062 25.6 56.437 24.127 57.889 23.216C60.131 21.812 62.511 22.752 64.284 24.401C67.712 27.589 68.753 33.242 64.534 36.205C60.763 38.856 54.805 36.838 51.891 33.876C48.48 30.408 49.912 24.456 52.032 20.712C54.006 17.227 57.87 15.354 61.571 14.334C68.288 12.484 78.622 12.816 83.629 18.232C83.803 18.419 84.14 18.167 83.987 17.957Z" fill="white"/>
        <path d="M59.5941 28.963C59.6101 28.874 59.7311 28.555 59.6101 28.711C59.6101 28.711 59.6001 28.722 59.6751 28.716C60.0231 28.689 60.3321 28.764 60.6621 28.874C60.9931 28.985 61.2531 29.182 61.4621 29.418C61.6751 29.657 61.8091 29.961 61.8961 30.264C61.9891 30.582 61.9201 30.903 62.0021 31.222C62.0181 31.283 62.0821 31.316 62.1431 31.302C63.1461 31.052 63.0271 29.659 62.7061 28.937C62.3531 28.145 61.8591 27.742 61.0561 27.45C60.4491 27.23 59.6851 27.171 59.1061 27.49C58.4841 27.832 58.4141 28.664 58.8841 29.152C59.0891 29.365 59.5391 29.284 59.5941 28.963Z" fill="white"/>
        <path d="M12.7961 6.26899C12.9421 6.28299 13.252 6.44899 13.407 6.50399C13.617 6.61199 13.675 6.62399 13.581 6.53899C13.663 6.31399 13.656 6.25999 13.558 6.37699C13.305 6.63699 12.941 6.79099 12.657 7.01799C11.94 7.58999 11.772 8.48999 11.911 9.34699C12.154 10.85 14.955 12.405 15.637 10.44C15.692 10.282 15.575 10.045 15.4 10.021C14.63 9.91699 13.8351 10.234 13.5261 9.27299C13.2611 8.44899 13.9261 8.14699 14.4451 7.71399C15.0081 7.24299 15.371 6.44999 14.838 5.80699C14.178 5.00899 13.3691 5.41199 12.6951 5.89499C12.5281 6.01499 12.5931 6.24999 12.7961 6.26899Z" fill="white"/>
        <path d="M13.3551 5.65899C12.4741 6.03099 11.7131 6.93499 11.2861 7.76499C11.0311 8.26099 10.9221 8.77099 11.0401 9.31999C11.1711 9.92299 11.8591 10.438 12.4681 10.208C12.7951 10.084 13.0651 9.75099 12.9401 9.37899C12.9021 9.26699 12.6171 8.88699 12.6171 8.89099C12.5781 8.58399 12.7261 8.26199 12.8531 7.99299C13.1541 7.36299 13.5141 6.76499 13.8571 6.15899C14.0541 5.81199 13.6751 5.52299 13.3551 5.65899Z" fill="white"/>
        <path d="M68.2531 12.044C60.1921 11.581 52.1071 14.743 44.5611 17.272C39.2181 19.063 32.398 22.165 30.127 27.807C29.49 29.39 29.4181 31.203 31.5031 31.312C32.6421 31.372 34.016 30.14 34.851 29.538C36.458 28.378 37.9561 27.046 39.4751 25.778C43.0561 22.791 46.6191 19.786 50.6901 17.48C54.9341 15.077 59.789 14.055 64.484 12.934C64.669 12.89 64.631 12.577 64.439 12.6C58.223 13.324 52.259 15.038 47.019 18.521C44.366 20.285 41.9501 22.407 39.5071 24.443C38.2641 25.48 37.029 26.526 35.777 27.552C34.909 28.263 34.0271 28.988 33.1151 29.64C31.8201 30.567 30.6161 28.767 31.3151 27.555C34.5761 21.897 41.1751 19.297 47.0741 17.407C54.0251 15.18 60.947 13.041 68.254 12.378C68.464 12.356 68.4691 12.056 68.2531 12.044Z" fill="white"/>
        <path d="M51.3621 15.759C49.5691 16.109 47.9191 17.05 46.2651 17.798C44.1021 18.779 41.9141 19.686 39.7971 20.764C36.1451 22.623 32.9031 25.296 30.7111 28.776C30.0771 29.781 31.6301 30.656 32.2851 29.696C34.7821 26.037 38.2401 23.639 42.0421 21.484C45.0531 19.777 49.1371 18.597 51.5361 16.057C51.6651 15.922 51.5361 15.726 51.3621 15.759Z" fill="white"/>
        <path d="M31.6451 30.124C34.2691 30.563 36.1451 27.989 37.6441 26.193C38.8311 24.771 40.0061 23.536 41.5121 22.437C42.9571 21.382 44.7091 20.807 45.9321 19.479C46.1021 19.294 45.9791 19.018 45.7351 19.003C43.0091 18.834 40.3311 20.916 38.3981 22.646C37.2531 23.672 36.3361 24.988 35.3421 26.153C34.1851 27.51 32.7201 28.522 31.5801 29.877C31.5171 29.953 31.5261 30.104 31.6451 30.124Z" fill="white"/>
        <path d="M45.6801 19.172C42.8401 19.953 40.9751 21.64 38.6791 23.395C36.7001 24.908 33.5131 26.548 32.7491 29.026C32.6541 29.333 32.9741 29.679 33.2901 29.568C35.4121 28.818 37.2551 26.639 38.9951 25.22C41.2791 23.356 43.3461 21.152 45.8411 19.554C46.0381 19.429 45.9141 19.107 45.6801 19.172Z" fill="white"/>
        <path d="M34.8491 27.673C34.8711 27.673 34.8711 27.638 34.8491 27.638C34.8251 27.638 34.8251 27.673 34.8491 27.673Z" fill="white"/>
        <path d="M68.927 12.312C58.005 10.487 47.185 13.206 36.798 16.572C32.154 18.076 27.812 19.96 23.617 22.455C21.929 23.459 18.731 25.151 19.063 27.526C19.497 30.629 28.831 24.467 29.7 23.889C32.862 21.79 36.171 20.179 39.695 18.738C44.973 16.58 50.311 14.263 55.905 13.054C56.038 13.025 55.98 12.829 55.848 12.852C47.695 14.299 39.512 17.05 32.123 20.878C28.366 22.824 25.094 26.047 21.037 27.373C20.358 27.596 18.736 27.795 20.516 25.824C21.068 25.214 21.798 24.769 22.478 24.32C23.673 23.53 24.943 22.829 26.18 22.108C30.45 19.618 35.267 18.098 39.962 16.639C49.265 13.747 59.122 11.917 68.901 12.482C69.001 12.488 69.024 12.328 68.927 12.312Z" fill="white"/>
        <path d="M51.782 13.165C44.864 13.187 38.125 16.402 32.099 19.463C29.155 20.959 26.392 22.85 23.397 24.227C21.956 24.89 19.956 25.5 19.296 27.075C18.971 27.851 20.086 28.325 20.607 27.839C21.914 26.625 23.661 26.008 25.238 25.232C28.176 23.788 30.926 21.891 33.849 20.39C36.852 18.848 39.93 17.337 43.154 16.321C46.043 15.41 49.275 15.119 51.863 13.466C51.996 13.38 51.947 13.164 51.782 13.165Z" fill="white"/>
        <path d="M20.5191 27.392C21.8231 27.28 23.0071 26.982 24.2181 26.473C25.3431 26.001 26.6321 25.64 27.3111 24.561C27.4551 24.333 27.2611 24.102 27.0331 24.075C25.8281 23.933 24.7201 24.665 23.6641 25.158C22.4781 25.711 21.4351 26.357 20.4411 27.205C20.3711 27.266 20.4261 27.4 20.5191 27.392Z" fill="white"/>
        <path d="M49.1621 28.276C48.5191 30.373 47.2151 32.68 45.0321 33.402C42.9141 34.103 40.9111 32.934 40.8431 30.675C40.7991 29.246 41.7631 28.094 43.1761 27.963C45.0841 27.786 44.7911 30.16 43.7021 29.846C42.3321 29.451 41.7521 31.58 43.1161 31.974C45.9451 32.791 48.1451 28.952 45.8931 27.005C44.0541 25.417 41.1991 26.442 40.0181 28.291C38.2861 31.006 40.0951 34.466 43.1171 34.899C44.4651 35.092 46.0371 34.718 47.1071 33.86C48.9491 32.383 49.3051 30.54 49.3841 28.304C49.3891 28.175 49.1981 28.157 49.1621 28.276Z" fill="white"/>
        <path d="M85.8521 20.143C95.5951 7.716 116.708 12.153 129.685 15.098C137.657 16.907 145.532 19.292 153.729 19.834C158.487 20.149 164.04 19.625 167.363 15.8C171.105 11.494 169.13 5.664 165.325 2.204C162.014 -0.806997 155.608 -0.828998 152.76 2.917C150.103 6.412 151.661 12.841 156.795 12.411C159.45 12.189 162.523 8.454 160.298 6.014C159.263 4.879 157.868 4.691 156.405 4.836C155.135 4.962 155.101 6.758 156.405 6.834C158.397 6.949 159.56 7.947 157.889 9.62C157.32 10.189 156.468 10.319 155.711 10.196C153.473 9.831 153.082 7.28 153.375 5.477C153.893 2.282 157.636 1.182 160.374 1.267C163.521 1.365 165.928 4.082 167.322 6.625C170.472 12.372 166.018 17.409 160.48 18.499C155.043 19.569 149.18 18.467 143.851 17.374C132.004 14.944 120.54 11.237 108.341 11.01C100.106 10.856 89.8211 12.095 84.4541 19.064C83.8411 19.863 85.2311 20.935 85.8521 20.143Z" fill="white"/>
        <path d="M86.5461 18.232C91.5381 12.832 101.172 12.744 107.888 14.161C111.344 14.89 114.543 16.491 116.956 19.091C120.125 22.504 121.368 28.646 119.133 32.777C117.046 36.63 111.397 37.915 107.459 37.008C101.366 35.605 102.344 28.7 105.354 24.981C108.471 21.128 113.637 22.343 115.231 26.842C116.062 29.186 114.487 31.056 112.339 31.777C111.425 32.084 110.377 31.974 109.508 31.595C108.522 30.963 108.181 30.093 108.488 28.987C109.368 28.64 110.158 28.159 110.857 27.543C109.697 28.361 110.834 30.29 111.972 29.449C114.577 27.522 109.176 23.423 106.996 27.657C104.85 31.825 110.032 34.803 113.485 32.945C117.448 30.813 117.335 26.37 114.381 23.39C110.695 19.667 106.165 22.1 103.651 25.698C100.735 29.87 101.575 35.471 106.429 37.602C111.048 39.63 117.28 37.235 120.073 33.331C123.307 28.81 120.621 21.411 117.3 17.745C113.603 13.664 107.48 12.448 102.228 12.351C96.6831 12.249 89.6821 13.188 86.1881 17.96C86.0371 18.167 86.3741 18.419 86.5461 18.232Z" fill="white"/>
        <path d="M111.294 29.151C111.76 28.669 111.69 27.912 111.133 27.53C110.587 27.156 109.825 27.241 109.225 27.416C108.457 27.64 107.914 28.049 107.551 28.761C107.175 29.496 106.953 31.031 108.036 31.301C108.096 31.316 108.16 31.282 108.175 31.221C108.244 30.956 108.206 30.7 108.251 30.432C108.303 30.118 108.422 29.858 108.589 29.589C108.785 29.273 109.062 29.055 109.414 28.911C109.731 28.781 110.073 28.696 110.416 28.707C110.599 28.713 110.52 28.7 110.589 28.732C110.534 28.706 110.495 28.535 110.534 28.711C110.554 28.794 110.569 28.878 110.583 28.962C110.638 29.284 111.088 29.365 111.294 29.151Z" fill="white"/>
        <path d="M157.481 5.895C156.918 5.491 156.04 4.961 155.434 5.691C154.906 6.33 155.027 7.045 155.607 7.609C156.157 8.142 156.738 8.24 156.686 9.132C156.62 10.221 155.475 9.926 154.778 10.02C154.601 10.044 154.485 10.281 154.54 10.439C154.836 11.289 155.731 11.426 156.522 11.241C157.366 11.044 157.918 10.271 158.216 9.518C158.549 8.679 158.209 7.71 157.613 7.092C157.362 6.833 156.997 6.661 156.703 6.456C156.384 6.235 156.776 6.425 156.557 6.577C156.682 6.49 157.236 6.283 157.379 6.269C157.585 6.25 157.649 6.015 157.481 5.895Z" fill="white"/>
        <path d="M156.321 6.16C156.636 6.719 156.982 7.27 157.26 7.852C157.4 8.143 157.548 8.451 157.563 8.779C157.57 8.943 157.316 9.153 157.238 9.38C157.113 9.752 157.383 10.085 157.71 10.209C158.316 10.438 158.898 9.963 159.103 9.417C159.291 8.907 159.168 8.37 158.949 7.892C158.545 7.009 157.737 6.046 156.823 5.66C156.502 5.523 156.123 5.812 156.321 6.16Z" fill="white"/>
        <path d="M101.924 12.375C108.994 13.017 115.605 15.09 122.349 17.167C128.495 19.06 134.782 21.55 138.546 27.058C138.786 27.414 139.009 27.781 139.212 28.159C138.686 28.779 138.158 29.398 137.63 30.018C137.035 29.637 136.466 29.219 135.925 28.762C134.408 27.544 132.903 26.316 131.415 25.065C128.962 23.003 126.514 20.936 123.922 19.051C118.588 15.173 112.227 13.353 105.739 12.597C105.546 12.574 105.51 12.887 105.694 12.931C110.124 13.989 114.576 14.994 118.676 17.042C122.836 19.12 126.4 22.21 129.956 25.154C132.196 27.008 135.019 30.309 137.927 31.117C139.96 31.682 140.758 30.374 140.327 28.49C139.732 25.889 136.978 23.459 135.003 21.907C132.455 19.903 129.393 18.631 126.37 17.533C118.737 14.761 110.124 11.572 101.924 12.043C101.708 12.056 101.713 12.356 101.924 12.375Z" fill="white"/>
        <path d="M118.64 16.058C121.021 18.579 125.123 19.828 128.134 21.485C131.946 23.582 135.412 26.065 137.891 29.697C138.546 30.657 140.099 29.781 139.466 28.777C137.232 25.231 134.019 22.755 130.379 20.765C128.53 19.754 126.554 18.971 124.628 18.122C122.739 17.289 120.856 16.158 118.815 15.759C118.642 15.726 118.511 15.922 118.64 16.058Z" fill="white"/>
        <path d="M138.597 29.876C136.652 27.565 134.329 25.431 132.288 23.164C130.471 21.145 127.265 18.827 124.442 19.002C124.198 19.018 124.074 19.294 124.245 19.478C125.268 20.59 126.649 21.178 127.935 21.951C129.779 23.062 131.173 24.56 132.533 26.192C134.032 27.989 135.908 30.563 138.532 30.123C138.651 30.104 138.661 29.953 138.597 29.876Z" fill="white"/>
        <path d="M124.336 19.555C126.829 21.152 128.906 23.349 131.182 25.221C132.912 26.644 134.769 28.821 136.887 29.569C137.203 29.68 137.523 29.334 137.428 29.027C136.734 26.77 134.021 25.272 132.191 23.914C129.646 22.025 127.615 20.029 124.498 19.172C124.263 19.107 124.139 19.429 124.336 19.555Z" fill="white"/>
        <path d="M135.328 27.673C135.351 27.673 135.351 27.638 135.328 27.638C135.306 27.638 135.306 27.673 135.328 27.673Z" fill="white"/>
        <path d="M101.273 12.483C110.737 11.936 120.201 13.676 129.238 16.344C133.997 17.749 138.71 19.365 143.13 21.636C144.499 22.339 145.809 23.178 147.128 23.967C147.86 24.405 148.548 24.882 149.215 25.415C150.046 26.08 150.653 27.77 149.139 27.374C145.439 26.408 142.177 23.228 138.902 21.346C131.494 17.09 122.669 14.333 114.33 12.853C114.197 12.83 114.14 13.026 114.272 13.055C119.572 14.2 124.549 16.406 129.574 18.374C133.261 19.818 136.826 21.441 140.113 23.648C141.315 24.455 149.856 30.54 151.035 27.714C151.926 25.581 148.451 23.65 147.08 22.769C143.111 20.218 138.794 18.386 134.333 16.886C123.709 13.316 112.464 10.437 101.251 12.311C101.152 12.328 101.177 12.488 101.273 12.483Z" fill="white"/>
        <path d="M118.313 13.466C120.609 14.932 123.454 15.337 126.048 16.043C129.65 17.022 133.005 18.72 136.326 20.39C139.149 21.809 141.887 23.382 144.578 25.038C146.216 26.046 148.129 26.501 149.567 27.839C150.09 28.324 151.204 27.851 150.88 27.075C150.222 25.502 148.222 24.886 146.78 24.227C143.786 22.859 141.004 20.983 138.077 19.463C132.104 16.361 125.272 13.188 118.394 13.165C118.229 13.164 118.181 13.38 118.313 13.466Z" fill="white"/>
        <path d="M149.735 27.206C148.743 26.359 147.7 25.707 146.513 25.159C145.452 24.668 144.351 23.933 143.144 24.076C142.916 24.103 142.722 24.334 142.866 24.562C143.517 25.597 144.707 25.944 145.788 26.401C147.056 26.939 148.288 27.275 149.658 27.392C149.751 27.4 149.806 27.266 149.735 27.206Z" fill="white"/>
        <path d="M120.792 28.307C120.868 30.458 121.192 32.045 122.762 33.617C123.802 34.657 125.464 35.012 126.877 34.927C129.987 34.739 131.693 31.299 130.3 28.573C129.255 26.529 126.48 25.497 124.482 26.856C121.888 28.62 124.14 32.821 127.062 31.978C128.425 31.584 127.845 29.454 126.475 29.85C125.326 30.182 125.165 28.061 126.742 27.963C128.347 27.863 129.265 29.22 129.336 30.679C129.442 32.903 127.457 33.824 125.527 33.499C123.125 33.096 121.668 30.404 121.015 28.279C120.978 28.157 120.788 28.175 120.792 28.307Z" fill="white"/>
    </g>
    <defs>
        <clipPath id="clip0_17_2">
            <rect width="170" height="39" fill="white"/>
        </clipPath>
    </defs>
</svg>
