<svg width="274" height="76" viewBox="0 0 274 76" fill="none" xmlns="http://www.w3.org/2000/svg">
    <path d="M30.4639 38.4053C41.513 29.7642 59.8585 38.1024 71.8322 41.0108C81.1027 43.2624 90.3125 45.5395 99.9016 45.6763C104.067 45.7369 108.203 45.1173 112.245 44.1635C115.133 43.4813 117.983 43.0377 119.32 40.139C119.5 39.754 119.142 39.3983 118.757 39.5742C101.557 47.4843 81.3743 41.3079 64.1801 36.4273C54.2568 33.6108 37.1328 27.5654 28.6266 36.57C27.446 37.819 29.1758 39.41 30.4639 38.4053Z" fill="#9E9E9E"/>
    <path d="M49.5795 43.1374C62.0007 41.9314 73.3332 49.0324 85.3206 51.1492C95.5664 52.9571 110.964 54.3937 118.443 45.5181C118.658 45.262 118.394 44.8867 118.081 45.0509C111.529 48.4968 105.623 49.8709 98.2128 49.6109C91.2878 49.3666 84.2827 48.0238 77.5805 46.3175C68.9042 44.1069 58.2792 38.0047 49.4388 42.6273C49.2081 42.7465 49.3039 43.1628 49.5795 43.1374Z" fill="#9E9E9E"/>
    <path d="M243.536 38.4053C232.487 29.7642 214.142 38.1024 202.168 41.0108C192.898 43.2624 183.688 45.5395 174.099 45.6763C169.934 45.7369 165.798 45.1173 161.756 44.1635C158.869 43.4813 156.017 43.0377 154.68 40.139C154.5 39.754 154.858 39.3983 155.243 39.5742C172.443 47.4843 192.626 41.3079 209.82 36.4273C219.744 33.6108 236.867 27.5654 245.374 36.57C246.554 37.819 244.823 39.41 243.536 38.4053Z" fill="#9E9E9E"/>
    <path d="M224.421 43.1374C212 41.9314 200.667 49.0324 188.68 51.1492C178.434 52.9571 163.036 54.3937 155.558 45.5181C155.343 45.262 155.607 44.8867 155.919 45.0509C162.473 48.4968 168.378 49.8709 175.787 49.6109C182.712 49.3666 189.718 48.0238 196.42 46.3175C205.096 44.1069 215.721 38.0047 224.562 42.6273C224.792 42.7465 224.696 43.1628 224.421 43.1374Z" fill="#9E9E9E"/>
    <path d="M143.306 22.0946C140.574 23.8048 138.455 26.4747 136.999 29.344C135.545 26.4767 133.426 23.8048 130.692 22.0946C123.606 17.9411 118.964 22.5832 119.697 29.9128C120.186 34.7992 123.362 39.6856 126.294 43.3504C128.004 45.305 134.601 54.8334 136.8 55.3221C136.853 55.3221 136.903 55.3749 136.952 55.414V55.4687C136.968 55.4531 136.983 55.455 136.997 55.4413C137.013 55.455 137.028 55.4531 137.042 55.4687V55.414C137.091 55.3749 137.142 55.3221 137.195 55.3221C139.393 54.8334 145.99 45.305 147.7 43.3504C150.632 39.6856 153.808 34.7992 154.297 29.9128C155.034 22.5832 150.392 17.9411 143.306 22.0946Z" fill="#9E9E9E"/>
</svg>
